<svg version="1.2" baseProfile="tiny-ps" xmlns="http://www.w3.org/2000/svg" viewBox="0 0 60 60" width="60" height="60">
	<title>logo_colored-svg</title>
	<defs>
		<linearGradient id="grd1" gradientUnits="userSpaceOnUse"  x1="134" y1="29" x2="134" y2="49">
			<stop offset="0" stop-color="#00c77a"  />
			<stop offset="1" stop-color="#01a1b5"  />
		</linearGradient>
		<linearGradient id="grd2" gradientUnits="userSpaceOnUse"  x1="23.953" y1="26.458" x2="23.953" y2="58.908">
			<stop offset="0" stop-color="#00e0a4"  />
			<stop offset="1" stop-color="#00182e"  />
		</linearGradient>
		<linearGradient id="grd3" gradientUnits="userSpaceOnUse"  x1="10178.2" y1="-20833.9" x2="10178.2" y2="-2687.85">
			<stop offset="0" stop-color="#00e0a4"  />
			<stop offset="1" stop-color="#00182e"  />
		</linearGradient>
		<linearGradient id="grd4" gradientUnits="userSpaceOnUse"  x1="29.7" y1="60.446" x2="29.7" y2="37.284">
			<stop offset="0" stop-color="#00e0b5"  />
			<stop offset="1" stop-color="#000b08"  />
		</linearGradient>
		<linearGradient id="grd5" gradientUnits="userSpaceOnUse"  x1="33.017" y1="31.015" x2="36.075" y2="34.561">
			<stop offset="0" stop-color="#00917b"  />
			<stop offset="1" stop-color="#00bd86"  />
		</linearGradient>
		<linearGradient id="grd6" gradientUnits="userSpaceOnUse"  x1="43.252" y1="30.942" x2="46.071" y2="32.978">
			<stop offset="0" stop-color="#004f75"  />
			<stop offset="1" stop-color="#006186"  />
		</linearGradient>
		<linearGradient id="grd7" gradientUnits="userSpaceOnUse"  x1="34.893" y1="37.222" x2="41.101" y2="32.153">
			<stop offset="0" stop-color="#00e0a3"  />
			<stop offset="1" stop-color="#00298f"  />
		</linearGradient>
		<linearGradient id="grd8" gradientUnits="userSpaceOnUse"  x1="37.677" y1="37.599" x2="48.166" y2="29.034">
			<stop offset="0" stop-color="#00e094"  />
			<stop offset="1" stop-color="#000051"  />
		</linearGradient>
		<linearGradient id="grd9" gradientUnits="userSpaceOnUse"  x1="36.267" y1="38.672" x2="34.438" y2="39.191">
			<stop offset="0" stop-color="#005773"  />
			<stop offset="1" stop-color="#003b1b"  />
		</linearGradient>
		<linearGradient id="grd10" gradientUnits="userSpaceOnUse"  x1="50279.4" y1="-39384.4" x2="50336.8" y2="-39249.8">
			<stop offset="0" stop-color="#00e094"  />
			<stop offset="1" stop-color="#000051"  />
		</linearGradient>
		<linearGradient id="grd11" gradientUnits="userSpaceOnUse"  x1="34.535" y1="39.415" x2="35.989" y2="41.403">
			<stop offset="0" stop-color="#000700"  />
			<stop offset="1" stop-color="#002b16"  />
		</linearGradient>
		<linearGradient id="grd12" gradientUnits="userSpaceOnUse"  x1="32.439" y1="31.483" x2="36.896" y2="34.811">
			<stop offset="0" stop-color="#00abb5"  />
			<stop offset="1" stop-color="#00ad95"  />
		</linearGradient>
		<linearGradient id="grd13" gradientUnits="userSpaceOnUse"  x1="33.669" y1="36.849" x2="36.066" y2="39.364">
			<stop offset="0" stop-color="#00c77a"  />
			<stop offset="1" stop-color="#00c797"  />
		</linearGradient>
		<linearGradient id="grd14" gradientUnits="userSpaceOnUse"  x1="33.69" y1="34.713" x2="36.445" y2="37.605">
			<stop offset="0" stop-color="#00d4b0"  />
			<stop offset="1" stop-color="#00a1b5"  />
		</linearGradient>
		<linearGradient id="grd15" gradientUnits="userSpaceOnUse"  x1="26.979" y1="44.519" x2="35.163" y2="37.837">
			<stop offset="0" stop-color="#00e088"  />
			<stop offset="1" stop-color="#00e0b5"  />
		</linearGradient>
		<linearGradient id="grd16" gradientUnits="userSpaceOnUse"  x1="31.206" y1="45.384" x2="36.082" y2="40.883">
			<stop offset="0" stop-color="#00e094"  />
			<stop offset="1" stop-color="#00e0b5"  />
		</linearGradient>
		<linearGradient id="grd17" gradientUnits="userSpaceOnUse"  x1="4416.95" y1="-938.566" x2="5083.64" y2="-1280.54">
			<stop offset="0" stop-color="#00c77a"  />
			<stop offset="1" stop-color="#00c797"  />
		</linearGradient>
		<linearGradient id="grd18" gradientUnits="userSpaceOnUse"  x1="-150873" y1="-241286" x2="-151446" y2="-240746">
			<stop offset="0" stop-color="#00917b"  />
			<stop offset="1" stop-color="#00bd86"  />
		</linearGradient>
		<linearGradient id="grd19" gradientUnits="userSpaceOnUse"  x1="-81193" y1="-220567" x2="-81557.8" y2="-220387">
			<stop offset="0" stop-color="#004f75"  />
			<stop offset="1" stop-color="#006186"  />
		</linearGradient>
		<linearGradient id="grd20" gradientUnits="userSpaceOnUse"  x1="-24145.2" y1="-5407.1" x2="-25590.4" y2="-6237.87">
			<stop offset="0" stop-color="#00e0a3"  />
			<stop offset="1" stop-color="#00298f"  />
		</linearGradient>
		<linearGradient id="grd21" gradientUnits="userSpaceOnUse"  x1="-57083.9" y1="-3950.94" x2="-60414.2" y2="-7551.44">
			<stop offset="0" stop-color="#00e094"  />
			<stop offset="1" stop-color="#000051"  />
		</linearGradient>
		<linearGradient id="grd22" gradientUnits="userSpaceOnUse"  x1="3149.09" y1="-1457.58" x2="3282.09" y2="-1365.84">
			<stop offset="0" stop-color="#005773"  />
			<stop offset="1" stop-color="#003b1b"  />
		</linearGradient>
		<linearGradient id="grd23" gradientUnits="userSpaceOnUse"  x1="-57890.4" y1="-39028.2" x2="-57969" y2="-38847.6">
			<stop offset="0" stop-color="#00e094"  />
			<stop offset="1" stop-color="#000051"  />
		</linearGradient>
		<linearGradient id="grd24" gradientUnits="userSpaceOnUse"  x1="-55632.5" y1="-42558.2" x2="-55727.2" y2="-42370.5">
			<stop offset="0" stop-color="#000700"  />
			<stop offset="1" stop-color="#002b16"  />
		</linearGradient>
		<linearGradient id="grd25" gradientUnits="userSpaceOnUse"  x1="-186318" y1="-579586" x2="-187178" y2="-579204">
			<stop offset="0" stop-color="#00abb5"  />
			<stop offset="1" stop-color="#00ad95"  />
		</linearGradient>
		<linearGradient id="grd26" gradientUnits="userSpaceOnUse"  x1="-77919.8" y1="-126460" x2="-78239.7" y2="-126175">
			<stop offset="0" stop-color="#00c77a"  />
			<stop offset="1" stop-color="#00c797"  />
		</linearGradient>
		<linearGradient id="grd27" gradientUnits="userSpaceOnUse"  x1="-81115.5" y1="-156538" x2="-81534.8" y2="-156228">
			<stop offset="0" stop-color="#00d4b0"  />
			<stop offset="1" stop-color="#00a1b5"  />
		</linearGradient>
		<linearGradient id="grd28" gradientUnits="userSpaceOnUse"  x1="-15701.2" y1="-4916.18" x2="-17283.2" y2="-5435.26">
			<stop offset="0" stop-color="#00e088"  />
			<stop offset="1" stop-color="#00e0b5"  />
		</linearGradient>
		<linearGradient id="grd29" gradientUnits="userSpaceOnUse"  x1="-123403" y1="-68619.4" x2="-123527" y2="-68248">
			<stop offset="0" stop-color="#00e094"  />
			<stop offset="1" stop-color="#00e0b5"  />
		</linearGradient>
		<linearGradient id="grd30" gradientUnits="userSpaceOnUse"  x1="4385.32" y1="-3830.69" x2="5433.53" y2="-4433.87">
			<stop offset="0" stop-color="#00e094"  />
			<stop offset="1" stop-color="#00e0b5"  />
		</linearGradient>
		<linearGradient id="grd31" gradientUnits="userSpaceOnUse"  x1="-15244.6" y1="-1339.62" x2="-15937" y2="-1712.02">
			<stop offset="0" stop-color="#00c77a"  />
			<stop offset="1" stop-color="#00c797"  />
		</linearGradient>
		<linearGradient id="grd32" gradientUnits="userSpaceOnUse"  x1="4904.81" y1="-875.213" x2="4999.92" y2="-1041.79">
			<stop offset="0" stop-color="#00c77a"  />
			<stop offset="1" stop-color="#00c797"  />
		</linearGradient>
		<linearGradient id="grd33" gradientUnits="userSpaceOnUse"  x1="32.309" y1="47.106" x2="27.48" y2="47.106">
			<stop offset="0" stop-color="#004d45"  />
			<stop offset="0.11" stop-color="#003630"  />
			<stop offset="0.24" stop-color="#00221e"  />
			<stop offset="0.37" stop-color="#001613"  />
			<stop offset="0.5" stop-color="#00120f"  />
			<stop offset="0.67" stop-color="#001512"  />
			<stop offset="0.78" stop-color="#001e1a"  />
			<stop offset="0.88" stop-color="#002d28"  />
			<stop offset="0.97" stop-color="#00423b"  />
			<stop offset="1" stop-color="#004d45"  />
		</linearGradient>
		<linearGradient id="grd34" gradientUnits="userSpaceOnUse"  x1="29.795" y1="44.838" x2="29.795" y2="36.94">
			<stop offset="0" stop-color="#00c584"  />
			<stop offset="1" stop-color="#00e0a9"  />
		</linearGradient>
		<linearGradient id="grd35" gradientUnits="userSpaceOnUse"  x1="29.762" y1="37.625" x2="30.082" y2="29.613">
			<stop offset="0" stop-color="#00c7b5"  />
			<stop offset="1" stop-color="#00abb5"  />
		</linearGradient>
		<linearGradient id="grd36" gradientUnits="userSpaceOnUse"  x1="33.411" y1="50.029" x2="33.411" y2="44.612">
			<stop offset="0" stop-color="#007f9b"  />
			<stop offset="1" stop-color="#00c693"  />
		</linearGradient>
		<linearGradient id="grd37" gradientUnits="userSpaceOnUse"  x1="4076.03" y1="-3629.24" x2="4076.03" y2="-4963.31">
			<stop offset="0" stop-color="#007f9b"  />
			<stop offset="1" stop-color="#00c693"  />
		</linearGradient>
		<linearGradient id="grd38" gradientUnits="userSpaceOnUse"  x1="29.12" y1="46.141" x2="20.727" y2="39.372">
			<stop offset="0" stop-color="#00c696"  />
			<stop offset="1" stop-color="#00959b"  />
		</linearGradient>
		<linearGradient id="grd39" gradientUnits="userSpaceOnUse"  x1="7001.88" y1="-3446.53" x2="9096.32" y2="-4359.66">
			<stop offset="0" stop-color="#00c696"  />
			<stop offset="1" stop-color="#00959b"  />
		</linearGradient>
		<linearGradient id="grd40" gradientUnits="userSpaceOnUse"  x1="109140" y1="-69732.5" x2="109266" y2="-69361.2">
			<stop offset="0" stop-color="#00e094"  />
			<stop offset="1" stop-color="#00e0b5"  />
		</linearGradient>
		<linearGradient id="grd41" gradientUnits="userSpaceOnUse"  x1="5508.35" y1="-1987.25" x2="5520.56" y2="-1902.61">
			<stop offset="0" stop-color="#00e094"  />
			<stop offset="1" stop-color="#00e0b5"  />
		</linearGradient>
		<linearGradient id="grd42" gradientUnits="userSpaceOnUse"  x1="76270.9" y1="-44730.2" x2="76270.9" y2="-100810">
			<stop offset="0" stop-color="#00e094"  />
			<stop offset="1" stop-color="#000051"  />
		</linearGradient>
		<linearGradient id="grd43" gradientUnits="userSpaceOnUse"  x1="33134.1" y1="-44554.1" x2="33134.1" y2="-100413">
			<stop offset="0" stop-color="#00e094"  />
			<stop offset="1" stop-color="#000051"  />
		</linearGradient>
		<linearGradient id="grd44" gradientUnits="userSpaceOnUse"  x1="24.927" y1="56.348" x2="24.927" y2="40.002">
			<stop offset="0" stop-color="#00e0ab"  />
			<stop offset="1" stop-color="#00182e"  />
		</linearGradient>
		<linearGradient id="grd45" gradientUnits="userSpaceOnUse"  x1="11104.3" y1="-6024.91" x2="11104.3" y2="-19334.3">
			<stop offset="0" stop-color="#00e0ab"  />
			<stop offset="1" stop-color="#00182e"  />
		</linearGradient>
	</defs>
	<style>
		tspan { white-space:pre }
		.shp0 { fill: url(#grd1) } 
		.shp1 { fill: url(#grd2) } 
		.shp2 { fill: url(#grd3) } 
		.shp3 { fill: url(#grd4) } 
		.shp4 { fill: url(#grd5) } 
		.shp5 { fill: url(#grd6) } 
		.shp6 { fill: url(#grd7) } 
		.shp7 { fill: url(#grd8) } 
		.shp8 { fill: url(#grd9) } 
		.shp9 { fill: url(#grd10) } 
		.shp10 { fill: url(#grd11) } 
		.shp11 { fill: url(#grd12) } 
		.shp12 { fill: url(#grd13) } 
		.shp13 { fill: url(#grd14) } 
		.shp14 { fill: url(#grd15) } 
		.shp15 { fill: url(#grd16) } 
		.shp16 { fill: url(#grd17) } 
		.shp17 { fill: url(#grd18) } 
		.shp18 { fill: url(#grd19) } 
		.shp19 { fill: url(#grd20) } 
		.shp20 { fill: url(#grd21) } 
		.shp21 { fill: url(#grd22) } 
		.shp22 { fill: url(#grd23) } 
		.shp23 { fill: url(#grd24) } 
		.shp24 { fill: url(#grd25) } 
		.shp25 { fill: url(#grd26) } 
		.shp26 { fill: url(#grd27) } 
		.shp27 { fill: url(#grd28) } 
		.shp28 { fill: url(#grd29) } 
		.shp29 { fill: url(#grd30) } 
		.shp30 { fill: url(#grd31) } 
		.shp31 { fill: url(#grd32) } 
		.shp32 { fill: url(#grd33) } 
		.shp33 { fill: url(#grd34) } 
		.shp34 { fill: url(#grd35) } 
		.shp35 { fill: url(#grd36) } 
		.shp36 { fill: url(#grd37) } 
		.shp37 { fill: url(#grd38) } 
		.shp38 { fill: url(#grd39) } 
		.shp39 { fill: url(#grd40) } 
		.shp40 { fill: url(#grd41) } 
		.shp41 { fill: url(#grd42) } 
		.shp42 { fill: url(#grd43) } 
		.shp43 { fill: url(#grd44) } 
		.shp44 { fill: url(#grd45) } 
	</style>
	<path id="Layer" fill-rule="evenodd" class="shp0" d="M85.02 44.84C84.39 45.6 83.5 46.19 82.34 46.61C81.18 47.03 79.9 47.23 78.5 47.23C77.02 47.23 75.72 46.91 74.61 46.27C73.5 45.63 72.64 44.69 72.03 43.46C71.43 42.23 71.12 40.79 71.1 39.14L71.1 37.98C71.1 36.27 71.39 34.8 71.96 33.56C72.54 32.31 73.36 31.36 74.44 30.7C75.53 30.04 76.8 29.7 78.25 29.7C80.27 29.7 81.86 30.19 83 31.16C84.14 32.12 84.81 33.52 85.02 35.36L81.6 35.36C81.45 34.39 81.1 33.67 80.56 33.22C80.03 32.77 79.29 32.54 78.36 32.54C77.16 32.54 76.25 32.99 75.63 33.89C75 34.79 74.68 36.12 74.68 37.89L74.68 38.98C74.68 40.77 75.02 42.13 75.7 43.04C76.38 43.95 77.37 44.41 78.68 44.41C80 44.41 80.95 44.13 81.51 43.57L81.51 40.63L78.31 40.63L78.31 38.04L85.02 38.04L85.02 44.84ZM94.5 47.23C92.64 47.23 91.12 46.66 89.95 45.52C88.79 44.38 88.2 42.86 88.2 40.96L88.2 40.64C88.2 39.36 88.45 38.23 88.94 37.23C89.43 36.22 90.13 35.45 91.03 34.91C91.93 34.36 92.96 34.09 94.12 34.09C95.86 34.09 97.22 34.63 98.21 35.73C99.21 36.82 99.71 38.37 99.71 40.38L99.71 41.76L91.64 41.76C91.75 42.59 92.07 43.25 92.62 43.75C93.18 44.25 93.88 44.5 94.72 44.5C96.02 44.5 97.04 44.03 97.78 43.09L99.44 44.95C98.93 45.67 98.25 46.23 97.38 46.64C96.51 47.04 95.55 47.23 94.5 47.23ZM94.11 36.83C93.44 36.83 92.89 37.05 92.47 37.51C92.05 37.96 91.79 38.61 91.67 39.45L96.38 39.45L96.38 39.18C96.37 38.43 96.16 37.86 95.77 37.45C95.38 37.04 94.83 36.83 94.11 36.83ZM109.77 37.5C109.31 37.43 108.9 37.4 108.55 37.4C107.27 37.4 106.43 37.84 106.03 38.7L106.03 47L102.64 47L102.64 34.32L105.84 34.32L105.94 35.83C106.62 34.67 107.56 34.09 108.76 34.09C109.14 34.09 109.49 34.14 109.82 34.24L109.77 37.5ZM111.46 40.54C111.46 39.29 111.7 38.16 112.19 37.18C112.67 36.2 113.37 35.43 114.27 34.89C115.19 34.36 116.25 34.09 117.45 34.09C119.16 34.09 120.56 34.61 121.63 35.66C122.72 36.7 123.32 38.13 123.45 39.92L123.47 40.79C123.47 42.73 122.93 44.3 121.84 45.48C120.76 46.65 119.3 47.23 117.47 47.23C115.64 47.23 114.18 46.65 113.09 45.48C112 44.3 111.46 42.71 111.46 40.7L111.46 40.54ZM114.85 40.79C114.85 41.99 115.07 42.91 115.53 43.55C115.98 44.19 116.63 44.5 117.47 44.5C118.29 44.5 118.93 44.19 119.39 43.57C119.86 42.93 120.09 41.93 120.09 40.54C120.09 39.36 119.86 38.45 119.39 37.8C118.93 37.15 118.28 36.83 117.45 36.83C116.62 36.83 115.98 37.15 115.53 37.8C115.07 38.44 114.85 39.44 114.85 40.79ZM140.07 42.08L142.37 29.94L145.87 29.94L142.09 47L138.55 47L135.77 35.59L132.99 47L129.45 47L125.67 29.94L129.17 29.94L131.48 42.05L134.29 29.94L137.27 29.94L140.07 42.08ZM155.51 47C155.35 46.7 155.24 46.32 155.17 45.86C154.35 46.78 153.28 47.23 151.97 47.23C150.73 47.23 149.69 46.88 148.88 46.16C148.06 45.44 147.66 44.53 147.66 43.44C147.66 42.09 148.15 41.06 149.15 40.34C150.15 39.63 151.59 39.26 153.47 39.25L155.03 39.25L155.03 38.53C155.03 37.94 154.88 37.47 154.57 37.12C154.27 36.77 153.8 36.59 153.15 36.59C152.58 36.59 152.13 36.73 151.81 37C151.48 37.28 151.32 37.65 151.32 38.13L147.94 38.13C147.94 37.39 148.16 36.71 148.62 36.09C149.07 35.46 149.71 34.98 150.54 34.63C151.37 34.27 152.3 34.09 153.33 34.09C154.89 34.09 156.13 34.48 157.04 35.27C157.97 36.05 158.43 37.15 158.43 38.57L158.43 44.07C158.43 45.27 158.6 46.18 158.93 46.8L158.93 47L155.51 47ZM152.71 44.64C153.21 44.64 153.67 44.54 154.09 44.32C154.51 44.09 154.82 43.79 155.03 43.41L155.03 41.23L153.76 41.23C152.07 41.23 151.16 41.82 151.06 42.99L151.04 43.19C151.04 43.61 151.19 43.96 151.49 44.23C151.78 44.51 152.19 44.64 152.71 44.64ZM165.6 47L162.2 47L162.2 29L165.6 29L165.6 47ZM172.98 47L169.58 47L169.58 29L172.98 29L172.98 47ZM182.61 47.23C180.75 47.23 179.24 46.66 178.07 45.52C176.9 44.38 176.32 42.86 176.32 40.96L176.32 40.64C176.32 39.36 176.57 38.23 177.06 37.23C177.55 36.22 178.25 35.45 179.15 34.91C180.05 34.36 181.08 34.09 182.24 34.09C183.97 34.09 185.34 34.63 186.33 35.73C187.33 36.82 187.83 38.37 187.83 40.38L187.83 41.76L179.75 41.76C179.86 42.59 180.19 43.25 180.74 43.75C181.29 44.25 181.99 44.5 182.84 44.5C184.14 44.5 185.16 44.03 185.9 43.09L187.56 44.95C187.05 45.67 186.36 46.23 185.5 46.64C184.63 47.04 183.67 47.23 182.61 47.23ZM182.23 36.83C181.56 36.83 181.01 37.05 180.59 37.51C180.17 37.96 179.91 38.61 179.79 39.45L184.5 39.45L184.5 39.18C184.48 38.43 184.28 37.86 183.89 37.45C183.5 37.04 182.94 36.83 182.23 36.83ZM194.82 31.2L194.82 34.32L196.98 34.32L196.98 36.8L194.82 36.8L194.82 43.13C194.82 43.6 194.91 43.94 195.09 44.14C195.27 44.34 195.61 44.45 196.12 44.45C196.49 44.45 196.82 44.42 197.11 44.36L197.11 46.93C196.45 47.13 195.77 47.23 195.06 47.23C192.69 47.23 191.48 46.04 191.43 43.64L191.43 36.8L189.58 36.8L189.58 34.32L191.43 34.32L191.43 31.2L194.82 31.2Z" />
	<path id="Layer" class="shp1" d="M26.03 54.66C25.49 54.56 24.96 54.44 24.44 54.3C24.25 54.24 24.05 54.19 23.86 54.13C23.72 54.09 23.58 54.04 23.44 54C23.35 53.97 23.24 53.93 23.15 53.9C22.99 53.84 22.84 53.79 22.69 53.73C22.52 53.67 22.36 53.61 22.2 53.55L21.88 47.55L22.58 44.17L25.99 54.53L26.03 54.66Z" />
	<path id="Layer" class="shp2" d="M37.75 47.55L37.41 53.51C37.24 53.58 37.08 53.64 36.92 53.71C36.75 53.77 36.59 53.83 36.42 53.88C36.34 53.91 36.26 53.94 36.17 53.97C36.03 54.02 35.89 54.06 35.75 54.1C35.02 54.32 34.29 54.51 33.54 54.65L33.56 54.61L33.56 54.59L37.01 44.02L37.75 47.55Z" />
	<path id="Layer" class="shp3" d="M34.29 51.86L32.44 54.82L32.35 54.83C32.32 54.84 32.28 54.84 32.25 54.85C32.22 54.85 32.19 54.86 32.16 54.86L31.97 54.88C31.83 54.9 31.7 54.91 31.56 54.92C30.98 54.97 30.39 55 29.8 55L29.76 55C29.17 55 28.59 54.97 28.01 54.92C27.88 54.91 27.75 54.9 27.63 54.89C27.57 54.88 27.51 54.88 27.45 54.87L27.36 54.86L27.27 54.85L27.17 54.83L25.33 51.86L24.93 44.6L26.86 49.86L29.17 50.27L30.63 50.27L32.81 49.84L34.47 44.79L34.29 51.86Z" />
	<path id="Layer" class="shp4" d="M32.47 31.37L35.41 33.06L35.42 35L32.47 31.37Z" />
	<path id="Layer" class="shp5" d="M42.77 32.21L44.81 31.71L43.85 34.95L42.77 32.21Z" />
	<path id="Layer" class="shp6" d="M38.85 33.4L37.16 36.07L35.72 38.17L35.42 35L38.85 33.4Z" />
	<path id="Layer" class="shp7" d="M43.85 34.95L41.45 37.56L37.71 38.27L35.72 38.17L37.16 36.07L38.85 33.4L40.36 32.84L42.77 32.21L43.85 34.95Z" />
	<path id="Layer" class="shp8" d="M34.29 39.37L35.72 38.16L36.14 39.37L34.29 39.37Z" />
	<path id="Layer" class="shp9" d="M35.72 38.16L37.71 38.27L36.14 39.37L35.72 38.16Z" />
	<path id="Layer" class="shp10" d="M34.29 39.37L36.14 39.37L34.16 40.81L34.29 39.37Z" />
	<path id="Layer" class="shp11" d="M32.47 31.37L35.42 35L33.61 36.78L32.47 31.37Z" />
	<path id="Layer" class="shp12" d="M33.6 36.78L35.72 38.17L34.29 39.37L33.6 36.78Z" />
	<path id="Layer" class="shp13" d="M35.42 35.01L35.72 38.17L33.6 36.78L35.42 35.01Z" />
	<path id="Layer" class="shp14" d="M34.29 39.37L34.16 40.81L31.85 42.05L33.61 36.78L34.29 39.37Z" />
	<path id="Layer" class="shp15" d="M34.35 45.22L32.85 44.89L31.85 42.05L34.16 40.81L33.75 42.57L34.35 45.22Z" />
	<path id="Layer" class="shp16" d="M32.81 49.84L30.63 50.27L31 49.06L32.48 46.89L32.81 49.84Z" />
	<path id="Layer" class="shp17" d="M24.15 35.02L24.13 33.08L27.05 31.37L24.15 35.02Z" />
	<path id="Layer" class="shp18" d="M15.69 35L14.68 31.75L16.74 32.24L15.69 35Z" />
	<path id="Layer" class="shp19" d="M24.15 35.02L23.83 38.19L22.41 36.09L20.69 33.43L24.15 35.02Z" />
	<path id="Layer" class="shp20" d="M16.74 32.24L19.17 32.88L20.69 33.43L22.41 36.09L23.83 38.19L21.89 38.3L18.13 37.61L15.69 35L16.74 32.24Z" />
	<path id="Layer" class="shp21" d="M23.48 39.4L23.83 38.19L25.33 39.39L23.48 39.4Z" />
	<path id="Layer" class="shp22" d="M23.48 39.4L21.89 38.3L23.83 38.19L23.48 39.4Z" />
	<path id="Layer" class="shp23" d="M25.48 40.83L23.48 39.4L25.33 39.39L25.48 40.83Z" />
	<path id="Layer" class="shp24" d="M25.99 36.8L24.15 35.02L27.05 31.37L25.99 36.8Z" />
	<path id="Layer" class="shp25" d="M25.33 39.39L23.83 38.19L25.98 36.8L25.33 39.39Z" />
	<path id="Layer" class="shp26" d="M25.98 36.8L23.83 38.19L24.15 35.03L25.98 36.8Z" />
	<path id="Layer" class="shp27" d="M25.98 36.8L27.69 42.04L25.48 40.82L25.33 39.39L25.98 36.8Z" />
	<path id="Layer" class="shp28" d="M27.24 46.91L26.84 44.91L29.86 45.14L27.24 46.91Z" />
	<path id="Layer" class="shp29" d="M27.69 42.04L26.84 44.91L25.12 45.3L25.97 42.49L25.48 40.83L27.69 42.04Z" />
	<path id="Layer" class="shp30" d="M27.24 46.91L28.67 49.07L29.17 50.28L26.86 49.86L27.24 46.91Z" />
	<path id="Layer" class="shp31" d="M30.63 50.27L29.17 50.27L28.67 49.07L29.82 48.95L29.82 48.94L29.83 48.95L29.85 48.94L29.85 48.95L31 49.06L30.63 50.27Z" />
	<path id="Layer" class="shp32" d="M31 49.06L29.83 48.95L28.67 49.07L27.24 46.91L29.83 45.16L29.83 45.14L29.85 45.15L29.86 45.14L29.86 45.16L32.48 46.89L31 49.06Z" />
	<path id="Layer" class="shp33" d="M32.85 44.89L29.86 45.14L29.86 45.14L29.85 45.14L29.83 45.14L29.83 45.14L26.84 44.91L27.69 42.04L25.99 36.8L29.8 37.02L33.61 36.78L31.85 42.05L32.85 44.89Z" />
	<path id="Layer" class="shp34" d="M29.81 37.02L29.8 37.02L29.78 37.02L29.78 37.02L25.99 36.8L27.05 31.37L29.75 32L32.47 31.37L33.61 36.78L29.81 37.02L29.81 37.02Z" />
	<path id="Layer" class="shp35" d="M34.35 45.22L32.81 49.84L32.48 46.89L32.85 44.89L34.35 45.22Z" />
	<path id="Layer" class="shp36" d="M27.24 46.91L26.86 49.86L25.12 45.3L26.84 44.91L27.24 46.91Z" />
	<path id="Layer" class="shp37" d="M26.84 44.91L25.12 45.3L23.48 39.4L25.48 40.82L26.79 42.5L26.84 44.91Z" />
	<path id="Layer" class="shp38" d="M32.9 42.74L34.16 40.8L36.14 39.37L34.35 45.22L32.85 44.89L32.9 42.74Z" />
	<path id="Layer" class="shp39" d="M29.83 45.14L32.85 44.89L32.48 46.89L29.83 45.14Z" />
	<path id="Layer" class="shp40" d="M29.83 45.14L31.28 45.97L28.59 45.97L29.83 45.14Z" />
	<path id="Layer" class="shp41" d="M54.97 24.81L55.43 25.53L49.56 29.88L45.95 30.09L42.74 30.27L41 30.58L38.1 31.1L36.73 31.48L35.41 33.06L32.48 31.39L35.36 29.07L37.5 28.5L41.56 23.11L41.77 22.16L42.03 22.13L42.21 24.27L39.36 28.05L41.93 27.74L45.47 26.15L47.32 24.55L47.15 20.24L47.32 15.12L47.94 15.06L48.01 19.15L48.42 19.86L49.05 19.27L50.61 15.45L51.04 11.39L51.62 11.42L51.28 17.06L49.61 21.2L49.91 23.53L52.48 20.05L54.48 10.56L54.18 5L54.88 5.2L55.73 11.58L54.59 18.77L54.5 19.78L57.76 13.43L58.52 13.62L54.6 21.65L49.53 27.27L49.44 27.97L49.72 28.23L50.86 27.79L54.97 24.81Z" />
	<path id="Layer" class="shp42" d="M24.09 29.09L27.05 31.37L24.13 33.08L22.74 31.5L21.37 31.12L18.47 30.6L16.74 30.28L13.56 30.09L9.97 29.87L4.13 25.54L4.59 24.83L8.67 27.8L9.81 28.24L10.08 27.97L9.99 27.28L4.93 21.68L1 13.71L1.75 13.51L5.01 19.83L4.92 18.82L3.75 11.67L4.54 5.33L5.23 5.13L4.97 10.66L7.02 20.09L9.59 23.56L9.87 21.24L8.19 17.11L7.81 11.51L8.39 11.48L8.84 15.52L10.41 19.32L11.04 19.9L11.44 19.2L11.48 15.13L12.1 15.18L12.3 20.28L12.16 24.58L14.01 26.17L17.53 27.75L20.1 28.07L17.23 24.3L17.4 22.17L17.66 22.2L17.87 23.14L21.95 28.52L24.09 29.09Z" />
	<path id="Layer" class="shp43" d="M27.27 54.85L27.17 54.84C26.91 54.8 26.65 54.76 26.4 54.72C26.36 54.72 26.32 54.71 26.28 54.7L26.03 54.66C25.5 54.56 24.96 54.44 24.44 54.3C24.25 54.24 24.06 54.19 23.87 54.13C23.73 54.09 23.59 54.05 23.45 54L22.86 51.08L22.58 44.18L23.48 39.4L25.12 45.3L25.34 51.87L27.27 54.85Z" />
	<path id="Layer" class="shp44" d="M37.04 44.17L36.76 51.07L36.75 51.08L36.17 53.96C36.03 54.01 35.89 54.06 35.74 54.1C35.02 54.32 34.29 54.5 33.54 54.64C33.46 54.66 33.37 54.68 33.28 54.69L33.22 54.7C33.22 54.7 33.22 54.7 33.21 54.7C32.96 54.75 32.7 54.79 32.44 54.82L32.35 54.83L34.28 51.86L34.34 45.22L36.13 39.37L37.01 44.02L37.04 44.17Z" />
</svg>