<?xml version="1.0" encoding="UTF-8"?>
<svg width="24px" height="24px" viewBox="0 0 24 24" version="1.1" xmlns="http://www.w3.org/2000/svg" xmlns:xlink="http://www.w3.org/1999/xlink">
    <title>mta</title>
    <g id="mta" stroke="none" stroke-width="1" fill="none" fill-rule="evenodd">
        <circle id="Oval" fill="#000000" cx="12.0200256" cy="11.9799744" r="11.9799744"></circle>
        <g transform="translate(6.168727, 6.460672)" fill="#FFFFFF" fill-rule="nonzero" id="Path">
            <path d="M0.0815178206,1.56365478 C0.0815178206,1.09850764 0.053130648,0.647345184 0.0105502279,0.18158854 L2.03725824,0.18158854 L2.10764293,1.12769338 C2.33295678,0.807258517 2.8829666,0.0216750192 4.31237078,0.0216750192 C5.95407762,0.0216750192 6.42069157,1.05533724 6.55967214,1.40374144 C7.15106922,0.225366573 8.11623196,0.0362678852 8.85252207,0.0362678852 C10.2955212,0.0362678852 10.875677,0.924001445 11.0312087,1.21464238 C11.4132594,1.8549039 11.3860507,2.74202776 11.3860507,3.3822874 L11.3860507,7.40626549 L9.2789162,7.40626549 L9.2789162,3.21082594 C9.2789162,2.42524018 9.16595801,1.55210099 8.07659585,1.55210099 C6.81692083,1.55210099 6.78854477,2.75967101 6.78854477,3.85108558 L6.78854477,7.40626549 L4.68020515,7.40626549 L4.68020515,3.16399696 C4.68020515,2.59670165 4.66602653,1.54906191 3.50569598,1.54906191 C2.18985254,1.54906191 2.18985254,2.71344458 2.18985254,3.21082594 L2.18985254,7.40626549 L0.0815178206,7.40626549 L0.0815178206,1.56365478 Z"></path>
            <polygon points="0.0105502279 9.02242069 11.3878207 9.02242069 11.3878207 10.8112801 0.0105502279 10.8112801"></polygon>
        </g>
    </g>
</svg>