<svg width="64" height="64" viewBox="0 0 64 64" fill="none" xmlns="http://www.w3.org/2000/svg">
<g clip-path="url(#clip0)">
<path d="M13.3331 6.13318L62.9331 39.9998L50.6664 58.1332L1.06641 23.9998L13.3331 6.13318Z" fill="url(#paint0_linear)"/>
<path d="M62.9339 40C58.6672 46.1333 44.2672 43.7333 30.6672 34.1333C16.8005 24.8 9.33387 12.2666 13.3339 6.13329C17.6005 -4.57764e-05 32.0005 2.39995 45.6005 12C59.4672 21.0666 66.9339 33.8666 62.9339 40Z" fill="url(#paint1_linear)"/>
<path d="M50.6668 57.8666C46.4002 63.9999 32.0002 61.5999 18.4002 51.9999C4.80018 42.3999 -2.93315 30.1333 1.33352 23.7333C5.60018 17.5999 20.0002 19.9999 33.6002 29.5999C47.2002 39.1999 54.6668 51.7333 50.6668 57.8666Z" fill="url(#paint2_linear)"/>
<path d="M62.9336 39.9999L50.6669 58.1332C46.4003 64.2666 32.0003 61.5999 18.4003 52.2666C15.7336 50.3999 13.3336 48.5332 10.9336 46.3999C12.8003 46.1332 15.2003 45.0666 17.6003 42.3999C21.8669 37.8666 24.0003 36.7999 25.8669 37.0666C27.7336 37.0666 29.8669 38.9332 33.3336 43.4666C36.8003 47.9999 41.6003 49.3333 44.5336 46.9333C44.8003 46.6666 45.0669 46.6666 45.3336 46.3999C47.7336 44.5332 48.5336 43.7332 53.0669 35.1999C54.1336 33.0666 57.8669 29.5999 62.9336 31.1999C64.2669 34.6666 64.2669 37.5999 62.9336 39.9999Z" fill="#0E0F23"/>
<path fill-rule="evenodd" clip-rule="evenodd" d="M61.0669 38.9333C57.3336 44.2667 44.2669 41.6 31.7336 32.8C18.9336 24 11.4669 12.8 15.2002 7.46668C18.9336 2.13335 32.0002 4.80002 44.5336 13.6C57.0669 22.4 64.5336 33.6 61.0669 38.9333ZM49.3336 30.9333C47.4669 33.6 41.0669 32.2667 34.6669 28C28.5336 23.7333 24.8002 18.1333 26.6669 15.4667C28.5336 12.8 34.9336 14.1333 41.3336 18.4C47.4669 22.6667 51.2002 28.2667 49.3336 30.9333Z" fill="white"/>
<path d="M12.2669 12.2665C12.2669 11.9999 12.0002 11.7332 11.7335 11.9999C11.4669 12.2665 11.2002 12.2665 11.2002 12.5332C11.4669 13.3332 11.7335 13.8665 11.7335 14.3999C11.7335 14.6665 12.0002 14.9332 12.2669 14.6665C12.5335 14.6665 12.8002 14.3999 12.5335 14.1332C12.5335 13.5999 12.5335 13.0665 12.2669 12.2665Z" fill="white"/>
<path d="M13.6003 16.5334C13.6003 16.2667 13.3336 16 13.067 16.2667C12.8003 16.5334 12.8003 16.5334 12.8003 16.8C15.7336 23.4667 21.867 30.6667 29.867 36C30.1336 36.2667 30.4003 36 30.667 36C30.9336 35.7334 30.667 35.4667 30.667 35.2C22.4003 29.8667 16.5336 22.9334 13.6003 16.5334Z" fill="white"/>
<path d="M45.8668 42.6667C45.6002 42.6667 45.3335 42.6667 45.3335 42.9334C45.3335 43.2 45.3335 43.4667 45.6002 43.4667C46.4002 43.7333 47.4668 44 48.2668 44.2667C48.5335 44.2667 48.8002 44.2667 48.8002 44C48.8002 43.7334 48.8002 43.4667 48.5335 43.4667C47.7335 43.2 46.6668 42.9334 45.8668 42.6667Z" fill="white"/>
<path d="M50.6671 43.7334C50.4005 43.7334 50.1338 44.0001 50.1338 44.2667C50.1338 44.5334 50.4005 44.8001 50.6671 44.8001C52.8005 45.0667 55.2005 45.3334 57.0671 45.0667C57.3338 45.0667 57.6005 44.8001 57.6005 44.5334C57.6005 44.2667 57.3338 44.0001 57.0671 44.0001C54.9338 44.2667 52.8005 44.0001 50.6671 43.7334Z" fill="white"/>
</g>
<defs>
<linearGradient id="paint0_linear" x1="23.0509" y1="1.31798" x2="32.8872" y2="35.0945" gradientUnits="userSpaceOnUse">
<stop stop-color="#03B8FF"/>
<stop offset="1" stop-color="#FA52A0"/>
</linearGradient>
<linearGradient id="paint1_linear" x1="31.152" y1="-1.04111" x2="40.9885" y2="32.7357" gradientUnits="userSpaceOnUse">
<stop stop-color="#03B8FF"/>
<stop offset="1" stop-color="#FA52A0"/>
</linearGradient>
<linearGradient id="paint2_linear" x1="14.9762" y1="3.66953" x2="24.8127" y2="37.4463" gradientUnits="userSpaceOnUse">
<stop stop-color="#03B8FF"/>
<stop offset="1" stop-color="#FA52A0"/>
</linearGradient>
<clipPath id="clip0">
<rect width="64" height="64" fill="white"/>
</clipPath>
</defs>
</svg>
